{"title":"Inji Iduppazhagi 2015 Movies HDRip XviD ESubs New +Sample ☻rDX☻","uid":13084571,"size":749401311,"categoryP":"video","categoryS":"movies","magnet":"?xt=urn:btih:edf776eeace1d2400edee736cec5a95a98fc1498&amp;dn=Inji+Iduppazhagi+2015+Movies+HDRip+XviD+ESubs+New+%2BSample+%E2%98%BBrDX%E2%98%BB&amp;tr=udp%3A%2F%2Ftracker.leechers-paradise.org%3A6969&amp;tr=udp%3A%2F%2Fzer0day.ch%3A1337&amp;tr=udp%3A%2F%2Fopen.demonii.com%3A1337&amp;tr=udp%3A%2F%2Ftracker.coppersurfer.tk%3A6969&amp;tr=udp%3A%2F%2Fexodus.desync.com%3A6969","seeders":4,"leechers":1,"uploader":"basicssom","files":2,"time":1450954068,"description":"----------------------------------------------------------------\r\nInji Iduppazhagi 2015 Tamil Movies HDRip XviD ESubs AAC New Source with Sample ~ ☻rDX☻\r\n\r\nSCREEN SHOTS &amp; POSTER:\r\n  \nhttp://doctorhosts.com/2015/12/InjiIduppazhagi/11.html  \nhttp://doctorhosts.com/2015/12/InjiIduppazhagi/1.html  \nhttp://doctorhosts.com/2015/12/InjiIduppazhagi/2.html  \nhttp://doctorhosts.com/2015/12/InjiIduppazhagi/3.html  \nhttp://doctorhosts.com/2015/12/InjiIduppazhagi/4.html  \nhttp://doctorhosts.com/2015/12/InjiIduppazhagi/5.html  \nhttp://doctorhosts.com/2015/12/InjiIduppazhagi/6.html  \nhttp://doctorhosts.com/2015/12/InjiIduppazhagi/7.html  \nhttp://doctorhosts.com/2015/12/InjiIduppazhagi/8.html  \nhttp://doctorhosts.com/2015/12/InjiIduppazhagi/9.html  \nhttp://doctorhosts.com/2015/12/InjiIduppazhagi/10.html\r\n\r\nFormat                                   : Matroska\r\nFormat version                           : Version 4 / Version 2\r\nFile size                                : 710 MiB\r\nDuration                                 : 1h 58mn\r\nOverall bit rate                         : 835 Kbps\r\nMovie name                               : Inji Iduppazhagi 2015 Tamil Movies HDRip XviD ESubs AAC New Source ~ rDX ~\r\n\r\nVideo\r\nID                                       : 1\r\nFormat                                   : AVC\r\nFormat/Info                              : Advanced Video Codec\r\nFormat profile                           :   \r\nFormat settings, CABAC                   : Yes\r\nFormat settings, ReFrames                : 4 frames\r\nCodec ID                                 : V_MPEG4/ISO/AVC\r\nDuration                                 : 1h 58mn\r\nBit rate                                 : 737 Kbps\r\nWidth                                    : 640 pixels\r\nHeight                                   : 272 pixels\r\nDisplay aspect ratio                     : 2.35:1\r\nFrame rate mode                          : Constant\r\nFrame rate                               : 25.000 fps\r\nColor space                              : YUV\r\nChroma subsampling                       : 4:2:0\r\nBit depth                                : 8 bits\r\nScan type                                : Progressive\r\nBits/(Pixel*Frame)                       : 0.169\r\nStream size                              : 614 MiB (87%)\r\nTitle                                    : ~ rDX ~\r\nWriting library                          : XviD\r\nLanguage                                 : Tamil\r\nDefault                                  : Yes\r\nForced                                   : Yes\r\n\r\nAudio\r\nID                                       : 2\r\nFormat                                   : MPEG Audio\r\nFormat version                           : Version 1\r\nFormat profile                           : Layer 3\r\nMode                                     : Joint stereo\r\nMode extension                           : MS Stereo\r\nCodec ID                                 : A_MPEG/L3\r\nCodec ID/Hint                            : MP3\r\nDuration                                 : 1h 58mn\r\nBit rate mode                            : Constant\r\nBit rate                                 : 96.0 Kbps\r\nChannel(s)                               : 2 channels\r\nSampling rate                            : 44.1 KHz\r\nCompression mode                         : Lossy\r\nStream size                              : 81.6 MiB (11%)\r\nTitle                                    : ~ rDX ~\r\nWriting library                          : LAME3.98.2\r\nLanguage                                 : Tamil\r\nDefault                                  : Yes\r\nForced                                   : Yes\r\n\r\nText\r\nID                                       : 3\r\nFormat                                   : UTF-8\r\nCodec ID                                 : S_TEXT/UTF8\r\nCodec ID/Info                            : UTF-8 Plain Text\r\nTitle                                    : ~ rDX ~\r\nLanguage                                 : English\r\nDefault                                  : No\r\nForced                                   : No\r\n\r\nIMDB                                      \nhttp://www.imdb.com/title/tt4959326/","torrent":{"xt":"urn:btih:edf776eeace1d2400edee736cec5a95a98fc1498","amp;dn":"Inji+Iduppazhagi+2015+Movies+HDRip+XviD+ESubs+New+%2BSample+%E2%98%BBrDX%E2%98%BB","amp;tr":["udp%3A%2F%2Ftracker.leechers-paradise.org%3A6969","udp%3A%2F%2Fzer0day.ch%3A1337","udp%3A%2F%2Fopen.demonii.com%3A1337","udp%3A%2F%2Ftracker.coppersurfer.tk%3A6969","udp%3A%2F%2Fexodus.desync.com%3A6969"],"infoHash":"edf776eeace1d2400edee736cec5a95a98fc1498","infoHashBuffer":{"type":"Buffer","data":[237,247,118,238,172,225,210,64,14,222,231,54,206,197,169,90,152,252,20,152]},"announce":[],"urlList":[]}}